<svg xmlns="http://www.w3.org/2000/svg" version="1.1" xmlns:xlink="http://www.w3.org/1999/xlink"
    xmlns:svgjs="http://svgjs.dev/svgjs" width="2000" height="1500" viewBox="0 0 2000 1500">
    <rect width="2000" height="1500" fill='none'></rect>
    <g transform="matrix(0.75,0,0,0.75,249.090909090909,292.8091699594738)">
        <svg viewBox="0 0 396 247" data-background-color="#ffffff"
            preserveAspectRatio="xMidYMid meet" height="1247" width="2000"
            xmlns="http://www.w3.org/2000/svg" xmlns:xlink="http://www.w3.org/1999/xlink">
            <g id="tight-bounds" transform="matrix(1,0,0,1,0.2400000000000091,-0.09999999999999432)">
                <svg viewBox="0 0 395.52 247.2" height="247.2" width="395.52">
                    <g>
                        <svg></svg>
                    </g>
                    <g>
                        <svg viewBox="0 0 395.52 247.2" height="247.2" width="395.52">
                            <g transform="matrix(1,0,0,1,80.22068316831681,47.215199999999996)">
                                <svg viewBox="0 0 235.07863366336636 152.7696" height="152.7696"
                                    width="235.07863366336636">
                                    <g>
                                        <svg viewBox="0 0 235.07863366336636 152.7696"
                                            height="152.7696" width="235.07863366336636">
                                            <g>
                                                <svg viewBox="0 0 235.07863366336636 152.7696"
                                                    height="152.7696" width="235.07863366336636">
                                                    <g>
                                                        <svg
                                                            viewBox="0 0 235.07863366336636 152.7696"
                                                            height="152.7696"
                                                            width="235.07863366336636">
                                                            <g id="textblocktransform">
                                                                <svg
                                                                    viewBox="0 0 235.07863366336636 152.7696"
                                                                    height="152.7696"
                                                                    width="235.07863366336636"
                                                                    id="textblock">
                                                                    <g>
                                                                        <svg
                                                                            viewBox="0 0 235.07863366336636 152.7696"
                                                                            height="152.7696"
                                                                            width="235.07863366336636">
                                                                            <g
                                                                                transform="matrix(1,0,0,1,0,0)">
                                                                                <svg
                                                                                    width="235.07863366336636"
                                                                                    viewBox="0 -27.78 47.62 31.310000000000002"
                                                                                    height="152.7696"
                                                                                    data-palette-color="#2b3d34">
                                                                                    <path
                                                                                        d="M3-24.4L7.03-24.4 7.03-9.22Q7.03-7.3 7.56-5.86 8.1-4.42 9.33-3.64 10.55-2.85 12.63-2.85L12.63-2.85Q14.58-2.85 15.98-3.56 17.38-4.28 18.26-5.53 19.15-6.78 19.48-8.35L19.48-8.35 20.2-5.48 19.33-5.48Q18.95-3.83 17.95-2.46 16.95-1.1 15.26-0.29 13.58 0.53 11.1 0.53L11.1 0.53Q8.22 0.53 6.44-0.56 4.65-1.65 3.83-3.74 3-5.83 3-8.78L3-8.78 3-24.4ZM19.3-24.4L23.35-24.4 23.35 0 19.3 0 19.48-5.85 19.3-6.1 19.3-24.4ZM33.8-14.93L33.8-14.93 32.87-18.05 33.87-18.1Q34.67-21.2 36.62-22.99 38.57-24.78 41.8-24.78L41.8-24.78Q42.6-24.78 43.23-24.65 43.87-24.53 44.37-24.35L44.37-24.35 44.62-20.43Q44-20.63 43.23-20.75 42.47-20.88 41.55-20.88L41.55-20.88Q38.8-20.88 36.76-19.35 34.72-17.82 33.8-14.93ZM34 0L29.95 0 29.95-24.4 33.9-24.4 33.7-17.2 34-16.9 34 0Z"
                                                                                        opacity="1"
                                                                                        transform="matrix(1,0,0,1,0,0)"
                                                                                        fill="#ffffff"
                                                                                        class="wordmark-text-0"
                                                                                        data-fill-palette-color="primary"
                                                                                        id="text-0"></path>
                                                                                </svg>
                                                                            </g>
                                                                        </svg>
                                                                    </g>
                                                                </svg>
                                                            </g>
                                                        </svg>
                                                    </g>
                                                    <g></g>
                                                </svg>
                                            </g>
                                        </svg>
                                    </g>
                                </svg>
                            </g>
                            <g>
                                <path
                                    d="M128.545 28.601A117.539 117.539 0 0 1 266.975 28.601L259.864 28.601A110.429 110.429 0 0 0 135.656 28.601L128.545 28.601M128.545 218.599A117.539 117.539 0 0 0 266.975 218.599L259.864 218.599A110.429 110.429 0 0 1 135.656 218.599L128.545 218.599"
                                    fill="#592c43" stroke="transparent"
                                    data-fill-palette-color="#ffffff"></path>
                            </g>
                        </svg>
                    </g>
                    <defs></defs>
                </svg>
                <rect width="395.52" height="247.2" fill="none" stroke="none" visibility="hidden"></rect>
            </g>
        </svg>
    </g>
</svg>